<svg width="268" height="60" viewBox="0 0 268 60" fill="none" xmlns="http://www.w3.org/2000/svg">
<path d="M27.9992 60L12 44.5L0.220713 55.8621C-0.668199 58.7586 1.38886 59.8276 2.49999 60H27.9992Z" fill="#FF4F12"/>
<path d="M0 10C0 4.47715 4.47715 0 10 0H258C263.523 0 268 4.47715 268 10V45L13 44.5L3.16925 54.3307C2.0715 55.4285 0.970686 56.8778 1.56099 58.3137C1.84356 59.001 2.42377 59.6413 3.5 60C2.67098 59.8618 1.08594 59.2655 0.340264 57.926C0.0199493 57.3507 0 56.6683 0 56.0098V45V10Z" fill="#7700FF"/>
</svg>
